<svg version="1.1" id="el_quLXF0yXT" xmlns="http://www.w3.org/2000/svg" xmlns:xlink="http://www.w3.org/1999/xlink" x="0px" y="0px" viewBox="0 0 600 600" style="enable-background:new 0 0 1190.6 841.9;" xml:space="preserve"><style>@-webkit-keyframes el_JCsGL3-llV_-ZVa2X9AI_Animation{0%{-webkit-transform: rotate(0deg);transform: rotate(0deg);}33.33%{-webkit-transform: rotate(-5deg);transform: rotate(-5deg);}66.67%{-webkit-transform: rotate(5deg);transform: rotate(5deg);}100%{-webkit-transform: rotate(0deg);transform: rotate(0deg);}}@keyframes el_JCsGL3-llV_-ZVa2X9AI_Animation{0%{-webkit-transform: rotate(0deg);transform: rotate(0deg);}33.33%{-webkit-transform: rotate(-5deg);transform: rotate(-5deg);}66.67%{-webkit-transform: rotate(5deg);transform: rotate(5deg);}100%{-webkit-transform: rotate(0deg);transform: rotate(0deg);}}@-webkit-keyframes el_aiy-stk9K8_h0_v3iRZl_Animation{0%{-webkit-transform: rotate(0deg);transform: rotate(0deg);}33.33%{-webkit-transform: rotate(5deg);transform: rotate(5deg);}66.67%{-webkit-transform: rotate(10deg);transform: rotate(10deg);}100%{-webkit-transform: rotate(0deg);transform: rotate(0deg);}}@keyframes el_aiy-stk9K8_h0_v3iRZl_Animation{0%{-webkit-transform: rotate(0deg);transform: rotate(0deg);}33.33%{-webkit-transform: rotate(5deg);transform: rotate(5deg);}66.67%{-webkit-transform: rotate(10deg);transform: rotate(10deg);}100%{-webkit-transform: rotate(0deg);transform: rotate(0deg);}}@-webkit-keyframes el_RTUZOn8PzAB_TrxWi2NjJ_Animation{0%{-webkit-transform: translate(0px, 0px);transform: translate(0px, 0px);}16.67%{-webkit-transform: translate(0px, 10px);transform: translate(0px, 10px);}33.33%{-webkit-transform: translate(0px, -10px);transform: translate(0px, -10px);}50%{-webkit-transform: translate(0px, 0px);transform: translate(0px, 0px);}66.67%{-webkit-transform: translate(0px, 5px);transform: translate(0px, 5px);}83.33%{-webkit-transform: translate(0px, -5px);transform: translate(0px, -5px);}100%{-webkit-transform: translate(0px, 0px);transform: translate(0px, 0px);}}@keyframes el_RTUZOn8PzAB_TrxWi2NjJ_Animation{0%{-webkit-transform: translate(0px, 0px);transform: translate(0px, 0px);}16.67%{-webkit-transform: translate(0px, 10px);transform: translate(0px, 10px);}33.33%{-webkit-transform: translate(0px, -10px);transform: translate(0px, -10px);}50%{-webkit-transform: translate(0px, 0px);transform: translate(0px, 0px);}66.67%{-webkit-transform: translate(0px, 5px);transform: translate(0px, 5px);}83.33%{-webkit-transform: translate(0px, -5px);transform: translate(0px, -5px);}100%{-webkit-transform: translate(0px, 0px);transform: translate(0px, 0px);}}@-webkit-keyframes el_9zU-pgndht_j6oS1cWXQ_Animation{0%{-webkit-transform: translate(0px, 0px);transform: translate(0px, 0px);}33.33%{-webkit-transform: translate(0px, -10px);transform: translate(0px, -10px);}66.67%{-webkit-transform: translate(0px, 10px);transform: translate(0px, 10px);}100%{-webkit-transform: translate(0px, 0px);transform: translate(0px, 0px);}}@keyframes el_9zU-pgndht_j6oS1cWXQ_Animation{0%{-webkit-transform: translate(0px, 0px);transform: translate(0px, 0px);}33.33%{-webkit-transform: translate(0px, -10px);transform: translate(0px, -10px);}66.67%{-webkit-transform: translate(0px, 10px);transform: translate(0px, 10px);}100%{-webkit-transform: translate(0px, 0px);transform: translate(0px, 0px);}}#el_quLXF0yXT *{-webkit-animation-duration: 6s;animation-duration: 6s;-webkit-animation-iteration-count: infinite;animation-iteration-count: infinite;-webkit-animation-timing-function: cubic-bezier(0, 0, 1, 1);animation-timing-function: cubic-bezier(0, 0, 1, 1);}#el_yj0bRqU-On{fill: #0F0E0E;}#el_I752arw_zP{fill: #111010;}#el_6MBiuLp3_4{fill: #0E0D0D;}#el_2r7-u01YAr{fill: #121111;}#el_PodAuM893P{fill: #010101;}#el_ahl24yQk5a{fill: #BF222F;}#el_TAEazjjIoD{fill: #040303;}#el_KIO98PIxAc{fill: #010101;}#el_iceekuLQAq{fill: #0A0404;}#el_7KI7kAgis9{fill: #010101;}#el_3gVmwRRuo7{fill: #040303;}#el_qYa-PzGjWG{fill: #060404;}#el_7IBM4r8NHO-{fill: #010101;}#el_KW54vOhJhrl{fill: #020202;}#el_CxXYn1irmHy{fill: #040303;}#el_a06kWIp7Sov{fill: #0A0706;}#el_9zU-pgndht_j6oS1cWXQ{-webkit-transform-origin: 50% 50%;transform-origin: 50% 50%;transform-box: fill-box;-webkit-animation-name: el_9zU-pgndht_j6oS1cWXQ_Animation;animation-name: el_9zU-pgndht_j6oS1cWXQ_Animation;-webkit-animation-timing-function: cubic-bezier(0.42, 0, 0.58, 1);animation-timing-function: cubic-bezier(0.42, 0, 0.58, 1);}#el_RTUZOn8PzAB_TrxWi2NjJ{-webkit-transform-origin: 50% 50%;transform-origin: 50% 50%;transform-box: fill-box;-webkit-animation-name: el_RTUZOn8PzAB_TrxWi2NjJ_Animation;animation-name: el_RTUZOn8PzAB_TrxWi2NjJ_Animation;-webkit-animation-timing-function: cubic-bezier(0.42, 0, 0.58, 1);animation-timing-function: cubic-bezier(0.42, 0, 0.58, 1);}#el_aiy-stk9K8_h0_v3iRZl{-webkit-animation-name: el_aiy-stk9K8_h0_v3iRZl_Animation;animation-name: el_aiy-stk9K8_h0_v3iRZl_Animation;-webkit-transform-origin: 50% 50%;transform-origin: 50% 50%;transform-box: fill-box;-webkit-animation-timing-function: cubic-bezier(0.42, 0, 0.58, 1);animation-timing-function: cubic-bezier(0.42, 0, 0.58, 1);}#el_JCsGL3-llV_-ZVa2X9AI{-webkit-animation-name: el_JCsGL3-llV_-ZVa2X9AI_Animation;animation-name: el_JCsGL3-llV_-ZVa2X9AI_Animation;-webkit-transform-origin: 50% 50%;transform-origin: 50% 50%;transform-box: fill-box;-webkit-animation-timing-function: cubic-bezier(0.42, 0, 0.58, 1);animation-timing-function: cubic-bezier(0.42, 0, 0.58, 1);}</style>

<path d="M462.7,129.6c-0.1,0.8-0.1,1.9-1.1,1.9c-1.3,0.1-1.5-1.3-1.6-2.1c-0.9-3.7-1.5-7.5-2.3-11.2&#10;&#9;c-1.7-7.4-4.6-14.2-11-18.9c-1-0.8-2.2-1.5-1.7-3.7c7,1.9,11.7,6.4,14.5,12.8c1.7,3.8,2.8,8,4.1,12c0,0.7,0,1.3,0,2&#10;&#9;C462.3,124.7,463.8,127.3,462.7,129.6z" id="el_yj0bRqU-On"/>
<path d="M38,325.4c3.4,3,2.4,6.8,3,10.1c1.7,9.3,5,17.9,10.7,25.5c0.9,1.2,2.6,2.7,1,4.3c-1.6,1.7-3.1,0.1-4.3-0.9&#10;&#9;C40.1,357.4,33.8,332.7,38,325.4z" id="el_I752arw_zP"/>
<path d="M433.7,98.7c7.9,4.3,14.2,8.9,17.8,16.3c2.3,4.6,3.5,9.6,4.3,14.7c0.2,1.4,0.1,2.9-1.4,3.3&#10;&#9;c-1.5,0.4-2.3-0.9-2.8-2.2c-0.4-1.1-0.9-2.1-1.1-3.3c-2-9-6.3-16.6-13.1-22.8C435.9,103.4,434.5,101.9,433.7,98.7z" id="el_6MBiuLp3_4"/>
<path d="M30.3,328.6c3,13,6,24.8,13.1,35.2c-3.3,1.3-5.4-0.2-6.6-2.1c-5.8-9.4-8.8-19.6-7.8-30.8&#10;&#9;C29.1,330.5,29.5,330.1,30.3,328.6z" id="el_2r7-u01YAr"/>
<g id="el_9zU-pgndht_j6oS1cWXQ" data-animator-group="true" data-animator-type="0"><g id="el_9zU-pgndht">
	<path d="M44.9,246.8c0-21.3-0.3-42.7,0.1-64c0.3-18,2.3-35.9,2-53.9c-0.1-7.4,3.8-11.9,10.8-14.5&#10;&#9;&#9;c7.3-2.7,14.9-3.3,22.5-3.7c30.7-1.9,61.4-3.5,92.1-5.3c14.1-0.8,28.2-2.2,42.3-2.6c11.1-0.3,22.3,0.7,33.4,0.8&#10;&#9;&#9;c45.5,0.4,90.9,0.6,136.4,1.1c12.8,0.2,25.5,1,38,4.6c19.2,5.6,24.5,12.4,27.3,32c2.3,16.2,2,32.5,2.1,48.8&#10;&#9;&#9;c0.1,21.1-0.6,42.3-0.1,63.4c0.5,20.1,0.8,40.2-0.2,60.3c-0.3,6.8-0.8,13.6-2.1,20.3c-3,15.7-8.2,20.3-24.1,22.2&#10;&#9;&#9;c-17.1,2-34.2,1.1-51.4,1c-26.1-0.1-52.3,0-78.3,1.9c-0.5,0-1,0-1.5,0.1c-7.1,0.5-12.3,2.9-14.2,10.9c-2.2,9.3-6.3,18.1-8.3,27.5&#10;&#9;&#9;c-0.5,2.5-1.5,4.4-4.3,4.7c-2.8,0.4-3.8-1.6-4.8-3.5c-5.5-11.5-11.1-23-16.4-34.6c-1.5-3.2-3.2-4.4-6.8-4.2&#10;&#9;&#9;c-27.3,1.1-54.5,2.1-81.8,3.1c-20.8,0.7-41.6,2.1-62.4,1c-10.1-0.5-20.3-0.3-30-3.8c-7.6-2.7-12.3-7.8-14.7-15.5&#10;&#9;&#9;c-4.2-13.3-5.7-26.9-5.8-40.8c-0.1-19.2,0-38.3,0-57.5C44.7,246.8,44.8,246.8,44.9,246.8z" id="el_PodAuM893P"/>
	<path d="M56.5,126.4c0.7-2.2,2-3.3,4.3-4.2c6.1-2.3,12.4-2.8,18.9-2.9c2.9-1,6,0.3,8.8-0.7c1.7-0.1,3.3-0.2,5-0.2&#10;&#9;&#9;c3.9-1,8,0.3,11.9-0.8c2.4-0.1,4.8-0.2,7.2-0.3c2.6-0.9,5.4,0.2,8-0.7c1.6-0.1,3.3-0.2,4.9-0.2c3.3-1.1,6.7,0.3,10-0.8&#10;&#9;&#9;c1.4-0.1,2.9-0.2,4.3-0.2c2.6-1,5.4,0.2,7.9-0.7c3-0.1,6-0.2,9-0.3c1.6-0.6,3.2-0.2,4.8-0.3c2.7-0.2,5.3,0.4,8-0.4&#10;&#9;&#9;c2.7-0.1,5.4-0.2,8.1-0.3c2.9-1,6.1,0.3,9-0.7c2.7-0.1,5.3-0.2,8-0.3c2.6-0.9,5.4,0.2,8-0.7c2-0.1,4.1-0.2,6.1-0.3&#10;&#9;&#9;c6.3-0.6,12.7-0.5,19,0c2,0.1,4,0.2,6,0.3c9.1,0.8,18.1,0.2,27.2,0.3c10.2,0.1,20.5,0,30.7,0c24.2,0,48.3,0,72.5,0&#10;&#9;&#9;c1.8,0,3.7-0.3,5.5,0.3c3.7,0.1,7.4,0.2,11.1,0.3c3.6,0.8,7.2,0.2,10.8,0.4c1.7,0.1,3.4-0.3,5,0.3c1.4,0.1,2.8,0.2,4.1,0.3&#10;&#9;&#9;c1.9,0.9,4-0.2,5.8,0.8c9.1,1.1,17.7,3.6,25.8,7.9c5.4,2.9,7.2,8,8.1,13.6c0.9,5.8,1.6,11.7,2.3,17.6c1,2.5-0.2,5.3,0.8,7.8&#10;&#9;&#9;c0.1,9.7,0.2,19.5,0.3,29.2c0.5,5.3,0.5,10.7,0,16c-0.1,1.7-0.2,3.5-0.3,5.2c-0.6,12.6-0.6,25.1,0,37.7c0.1,6.4,0.2,12.8,0.3,19.2&#10;&#9;&#9;c0.8,4.6,0.2,9.2,0.3,13.8c0,3.4,0,6.8,0,10.2c-0.2,4.9,0.4,9.9-0.3,14.8c-0.1,2-0.2,4.1-0.3,6.1c-1,2.9,0.3,6-0.8,8.9&#10;&#9;&#9;c-1.6,5.4-1.1,11.1-2.8,16.6c-1.5,4.9-4.4,7.1-8.8,8.4c-6.7,1.9-13.7,2-20.5,2.9c-1.1-0.5-2.3-0.4-3.4-0.4c-28.6,0-57.3,0-85.9,0&#10;&#9;&#9;c-1.2,0-2.3-0.2-3.4,0.4c-3.4,0.3-6.8,0.7-10.2,1c-2-0.6-4-0.6-6,0c-4.7,0.6-9.5,1.3-14.2,1.6c-9.4,0.6-12.5,7.2-14.9,14.8&#10;&#9;&#9;c-1.9,6.1-4,12.2-6.2,18.8c-3.8-3.6-4.9-7.8-6.8-11.6c-2.7-5.5-5.5-11-7.9-16.6c-1.6-3.7-4-5.5-8-5.1c-2.1-0.9-4.3-0.2-6.5-0.4&#10;&#9;&#9;c-4.5,0.2-9-0.4-13.5,0.4c-2.7,0.1-5.3,0.2-8,0.3c-2,0.6-4,0.2-6,0.3c-3.7,0.2-7.4-0.4-11,0.4c-2.3,0.1-4.6,0.2-7,0.3&#10;&#9;&#9;c-5.7,1.1-11.4-0.3-17.1,0.7c-2.4,0.1-4.8,0.2-7.2,0.3c-2.3,0.7-4.6,0.2-6.9,0.3c-4.3,0.2-8.6-0.4-12.9,0.4&#10;&#9;&#9;c-2.7,0.1-5.5,0.2-8.2,0.3c-3,0.7-6.1,0.2-9.2,0.3c-12.6,0.2-25.1-0.4-37.7,0.3c-2.7-0.3-5.4-0.7-8-1c-2.2-1-4.7,0.3-6.9-0.8&#10;&#9;&#9;c-3.4,0-6.5-1.1-9.7-2.1c-6.8-2.1-9.7-6.9-9.5-13.8c-0.9-1.9,0.2-4.1-0.8-6c-0.3-1.7-0.6-3.4-1-5.2c0.7-2.1,0.3-4.3,0.3-6.4&#10;&#9;&#9;c0-23.6,0-47.3,0-70.9c0-1.8,0.4-3.7-0.4-5.4c-0.1-19.1-0.2-38.1-0.3-57.2c-0.7-6.3-0.1-12.6-0.3-19c0-6.3,0-12.6,0-18.9&#10;&#9;&#9;c0-6.2,0-12.4,0-18.7C56.3,130.1,55.8,128.2,56.5,126.4z" id="el_ahl24yQk5a"/>
</g></g>
<path d="M76.5,151.6c0.1,2,0.2,4,0.3,6c1,2.9-0.3,6,0.7,8.9c-1.3,4.8,1,9.6,0.3,14.5c-0.4,2.6,0.9,7.3-1.8,7.3&#10;&#9;c-2.8,0-3-4.7-3.4-7.7c-0.2-1.6-0.1-3.3-0.2-4.9c-0.6-1.5-0.2-3.1-0.3-4.7c-0.2-1.8,0.4-3.6-0.4-5.4c-0.5-6.7,0-13.3,0.9-19.9&#10;&#9;c0.3-2.3,0.4-2.3,3.1-2.2C76.7,146,75.5,148.9,76.5,151.6z" id="el_TAEazjjIoD"/>
<g id="el_JCsGL3-llV_-ZVa2X9AI" data-animator-group="true" data-animator-type="1"><g id="el_JCsGL3-llV">
	<path d="M362.8,215.3c-2.8,16-12.6,25.7-27.9,29c-12.1,2.7-18,11-23.2,20.9c-1.1,2-2.2,4.1-3.4,6&#10;&#9;&#9;c-4.7,7.3-6.3,7.5-13.5,2.2c-1-1.5-0.6-3.1-0.2-4.8c6.8-18.2,15.8-34.3,36.5-39.9c4.9-1.3,9.6-3.1,14.1-5.9c4-2.6,5.9-6.3,7.2-10.3&#10;&#9;&#9;c1.5-4.5-1.3-8.9-6.8-11.1c-1.2-0.5-2.5-0.8-3.8-1.2c-2.7-0.6-5.4-0.7-8,0c-6.7,0.6-11.1,5.2-15.9,9.1c-1.7,0.7-3.5,0.6-5.2,0&#10;&#9;&#9;c-3.8-3.4-4-6.5-0.2-10.4c9.5-9.9,18.5-13,31.7-8.6c8.5,2.9,16.6,7,18.7,17.1C363.3,210.2,363.3,212.7,362.8,215.3z" id="el_KIO98PIxAc"/>
	<path d="M284.6,289.4c0-4.5,3.9-8.2,8.6-8.2c4.2-0.1,5.4,2.6,5.5,6.1c0.1,5-3,9.3-6.8,9.3&#10;&#9;&#9;C286.9,296.7,284.6,294.4,284.6,289.4z" id="el_iceekuLQAq"/>
</g></g>
<g id="el_aiy-stk9K8_h0_v3iRZl" data-animator-group="true" data-animator-type="1"><g id="el_aiy-stk9K8">
	<path d="M192.5,281.3c-7.8,4.5-10.2,4.2-13.8-3.8c-6-13.3-11.3-27-6.2-42c1.4-4,3.4-7.9,5.4-11.7&#10;&#9;&#9;c1.4-2.7,2.4-5.4,2.8-8.4c0.6-2.3,0.7-4.6-0.1-6.8c-3.7-8.7-6.4-10.9-12.5-10c-8.2,1.2-14.9,8.9-15.6,17.9c-1.2,2.9,0.3,6-0.8,8.9&#10;&#9;&#9;c-5,5.2-8.6,3.9-11.2-4c-0.5-2.6-0.5-5.2,0-7.8c1.9-13.4,9.8-20.8,25.9-24.2c3.1-0.6,6.2-0.6,9.3,0c11.3,3.5,16,12.4,19,22.8&#10;&#9;&#9;c0.7,3.8,0.7,7.6,0,11.5c-0.6,5.1-2.7,9.8-5.2,14.2c-4,7.2-4.8,14.5-1.6,22.2c1.9,4.7,3.2,9.6,4.8,14.4&#10;&#9;&#9;C193.2,276.8,193.5,279,192.5,281.3z" id="el_7KI7kAgis9"/>
	<path d="M187.6,296.1c-0.1-4.4,2-6.7,6-6.7c3.8,0,8.3,5,8.5,9.5c0.1,2.3-4.5,6.5-7.1,6.5&#10;&#9;&#9;C191.5,305.3,187.7,300.6,187.6,296.1z" id="el_3gVmwRRuo7"/>
</g></g>
<path d="M80.7,172.3c-0.1-2-0.2-3.9-0.3-5.9c-0.7-3.5-0.2-7-0.3-10.5c-0.2-3.1,0.4-6.3-0.4-9.4c3.4-2.6,3.6,1.1,3.7,2.4&#10;&#9;c0.1,2.7,1.2,5.1,1.3,7.8c0.9,2.6-0.3,5.4,0.8,8c0.1,1.7,0.2,3.4,0.2,5.1c0.8,7.4,0.2,14.8,0.3,22.2c0,0.9-0.2,1.6-1.4,1.5&#10;&#9;c-2-4.1-2.5-8.6-3.2-13C80.5,177.7,81.8,174.9,80.7,172.3z" id="el_qYa-PzGjWG"/>
<g id="el_RTUZOn8PzAB_TrxWi2NjJ" data-animator-group="true" data-animator-type="0"><g id="el_RTUZOn8PzAB">
	<path d="M228.5,212.6c-4.5-2.9-3.4-7.2-2.3-11.1c3.5-11.6,11.4-18.1,23.5-19.2c3.9-0.5,7.8-0.5,11.7,0&#10;&#9;&#9;c11,2.2,16.2,8.5,18.3,22c0.5,3,0.5,6.1,0,9.1c-2.1,9.7-7.6,17-15,23.4c-4.4,3.8-8.3,8.2-8.3,14.6c-0.8,3-0.2,6.1-0.4,9.1&#10;&#9;&#9;c-0.1,1.7,0.3,3.4-0.3,5c-0.5,4.1,0.8,8.7-3,12c-2,1-4.2-0.2-6.1,0.8c-4.3-0.4-4.5-3.9-5.2-7c-0.6-6.3-0.5-12.5,0-18.8&#10;&#9;&#9;c0.6-11.5,4.5-21.5,13.5-29.2c3.6-3.1,7.1-6.5,9.8-10.5c2.9-4.3,3.7-8.7,2.2-13.6c-1.5-5.1-4.4-7.5-9.9-7.7&#10;&#9;&#9;c-8.2-0.3-17.2,6.2-20.3,15c-0.8,2.3-1.9,4.2-3.4,5.9C231.8,213.3,230.1,213,228.5,212.6z" id="el_7IBM4r8NHO-"/>
	<path d="M242.5,290.5c0.3-2.5,2.2-3.8,4.1-5c1.7-0.9,3.5-0.6,5.3-0.1c2.6,1.2,3.2,3.8,3.6,6.1c0.6,3.6,0.8,7.4-3.8,8.9&#10;&#9;&#9;c-4.3,1.4-7-0.1-9.2-4.9C242,293.8,242,292.1,242.5,290.5z" id="el_KW54vOhJhrl"/>
</g></g>
<path d="M432.8,285.4c1.1,4.3,0.9,8.6,0.7,13c-1.1,2.2,0.2,4.7-0.8,7c-0.3,2-0.6,4-1,6.1c0.5,2.3,0.5,4.5,0,6.8&#10;&#9;c-0.3,1.5-0.4,3.2-1.9,3.8c-1,0.4-1.1-0.9-1.4-1.6c-0.5-2.3-0.5-4.6,0-6.9c0.1-2.3,0.2-4.6,0.3-7c1-3.9-0.2-7.9,0.7-11.8&#10;&#9;c0-8.1,0-16.3,0-24.5c2.2,0,2.1,1.3,2.3,2.4c0.8,1.5-0.3,3.3,0.8,4.8c0.1,0.8,0.1,1.5,0.2,2.3C433.3,281.6,433.3,283.5,432.8,285.4z&#10;&#9;" id="el_CxXYn1irmHy"/>
<path d="M422.5,283.6c0.2-1.6,0.3-3.2,0.5-4.8c0.5,0,0.9,0,1.4-0.1c2.5,9,1.1,18.4,1.2,27.6c-1,1.9,0.1,4.1-0.8,6&#10;&#9;c-0.5,1.5-1.1,3-1.6,4.5c-0.5,0-0.9,0-1.4-0.1c0-5.5,0-10.9,0-16.4c0.8-2.7,0.2-5.6,0.4-8.3C422.3,289.3,421.8,286.4,422.5,283.6z" id="el_a06kWIp7Sov"/>
<script>(function(){var a=document.querySelector('#el_quLXF0yXT'),b=a.querySelectorAll('style'),c=function(d){b.forEach(function(f){var g=f.textContent;g&amp;&amp;(f.textContent=g.replace(/transform-box:[^;\r\n]*/gi,'transform-box: '+d))})};c('initial'),window.requestAnimationFrame(function(){return c('fill-box')})})();</script></svg>